name Walk4.mot
datacolumns 19
datarows 30
range 2.89800000 2.92700000
endheader

                time	   L_ground_force_vx	   L_ground_force_vy	   L_ground_force_vz	   L_ground_force_px	   L_ground_force_py	   L_ground_force_pz	   R_ground_force_vx	   R_ground_force_vy	   R_ground_force_vz	   R_ground_force_px	   R_ground_force_py	   R_ground_force_pz	   L_ground_torque_x	   L_ground_torque_y	   L_ground_torque_z	   R_ground_torque_x	   R_ground_torque_y	   R_ground_torque_z	
          2.89800000	          0.00000000	          0.00000000	         -0.00000000	         -0.00000000	          0.00000000	         -0.00000000	         21.63435327	         90.62899353	          5.43132743	          0.15778900	          0.00000000	          0.07050817	          0.00000000	          0.00000000	          0.00000000	          0.00000000	         -6.58244395	          0.00000000	
          2.89900000	          0.00000000	          0.00000000	         -0.00000000	         -0.00000000	          0.00000000	         -0.00000000	         20.48410498	         85.22945642	          5.25110890	          0.15470943	          0.00000000	          0.06914571	          0.00000000	          0.00000000	          0.00000000	          0.00000000	         -6.30763240	          0.00000000	
          2.90000000	          0.00000000	          0.00000000	         -0.00000000	         -0.00000000	          0.00000000	         -0.00000000	         19.35868745	         79.99390238	          5.06781775	          0.15150480	          0.00000000	          0.06772814	          0.00000000	          0.00000000	          0.00000000	          0.00000000	         -6.03533093	          0.00000000	
          2.90100000	          0.00000000	          0.00000000	         -0.00000000	         -0.00000000	          0.00000000	         -0.00000000	         18.25937424	         74.92399761	          4.88216377	          0.14817723	          0.00000000	          0.06625615	          0.00000000	          0.00000000	          0.00000000	          0.00000000	         -5.76592735	          0.00000000	
          2.90200000	          0.00000000	          0.00000000	         -0.00000000	         -0.00000000	          0.00000000	         -0.00000000	         17.18734817	         70.02107373	          4.69483664	          0.14472957	          0.00000000	          0.06473076	          0.00000000	          0.00000000	          0.00000000	          0.00000000	         -5.49979908	          0.00000000	
          2.90300000	          0.00000000	          0.00000000	         -0.00000000	         -0.00000000	          0.00000000	         -0.00000000	         16.14369791	         65.28612428	          4.50650104	          0.14116545	          0.00000000	          0.06315335	          0.00000000	          0.00000000	          0.00000000	          0.00000000	         -5.23731226	          0.00000000	
          2.90400000	          0.00000000	          0.00000000	         -0.00000000	         -0.00000000	          0.00000000	         -0.00000000	         15.12941522	         60.71980324	          4.31779291	          0.13748929	          0.00000000	          0.06152568	          0.00000000	          0.00000000	          0.00000000	          0.00000000	         -4.97882116	          0.00000000	
          2.90500000	          0.00000000	          0.00000000	         -0.00000000	         -0.00000000	          0.00000000	         -0.00000000	         14.14539227	         56.32242650	          4.12931674	          0.13370640	          0.00000000	          0.05984990	          0.00000000	          0.00000000	          0.00000000	          0.00000000	         -4.72466798	          0.00000000	
          2.90600000	          0.00000000	          0.00000000	         -0.00000000	         -0.00000000	          0.00000000	         -0.00000000	         13.19241904	         52.09397751	          3.94164400	          0.12982297	          0.00000000	          0.05812858	          0.00000000	          0.00000000	          0.00000000	          0.00000000	         -4.47518300	          0.00000000	
          2.90700000	          0.00000000	          0.00000000	         -0.00000000	         -0.00000000	          0.00000000	         -0.00000000	         12.27118052	         48.03411831	          3.75531273	          0.12584616	          0.00000000	          0.05636471	          0.00000000	          0.00000000	          0.00000000	          0.00000000	         -4.23068480	          0.00000000	
          2.90800000	          0.00000000	          0.00000000	         -0.00000000	         -0.00000000	          0.00000000	         -0.00000000	         11.38225370	         44.14220586	          3.57082786	          0.12178412	          0.00000000	          0.05456178	          0.00000000	          0.00000000	          0.00000000	          0.00000000	         -3.99148058	          0.00000000	
          2.90900000	          0.00000000	          0.00000000	         -0.00000000	         -0.00000000	          0.00000000	         -0.00000000	         10.52610446	         40.41731235	          3.38866188	          0.11764608	          0.00000000	          0.05272378	          0.00000000	          0.00000000	          0.00000000	          0.00000000	         -3.75786612	          0.00000000	
          2.91000000	          0.00000000	          0.00000000	         -0.00000000	         -0.00000000	          0.00000000	         -0.00000000	          9.70308438	         36.85824550	          3.20925522	          0.11344243	          0.00000000	          0.05085526	          0.00000000	          0.00000000	          0.00000000	          0.00000000	         -3.53012515	          0.00000000	
          2.91100000	          0.00000000	         -0.00000000	         -0.00000000	         -0.00000000	          0.00000000	         -0.00000000	          8.91342797	         33.46356383	          3.03301597	          0.10918481	          0.00000000	          0.04896135	          0.00000000	          0.00000000	          0.00000000	          0.00000000	         -3.30852786	          0.00000000	
          2.91200000	          0.00000000	         -0.00000000	         -0.00000000	         -0.00000000	          0.00000000	         -0.00000000	          8.15725075	         30.23158176	          2.86031879	          0.10488617	          0.00000000	          0.04704783	          0.00000000	          0.00000000	          0.00000000	          0.00000000	         -3.09332810	          0.00000000	
          2.91300000	          0.00000000	         -0.00000000	         -0.00000000	         -0.00000000	          0.00000000	         -0.00000000	          7.43454911	         27.16036172	          2.69150329	          0.10056087	          0.00000000	          0.04512113	          0.00000000	          0.00000000	          0.00000000	          0.00000000	         -2.88475931	          0.00000000	
          2.91400000	          0.00000000	         -0.00000000	         -0.00000000	         -0.00000000	          0.00000000	         -0.00000000	          6.74520256	         24.24769148	          2.52687229	          0.09622458	          0.00000000	          0.04318832	          0.00000000	          0.00000000	          0.00000000	          0.00000000	         -2.68302914	          0.00000000	
          2.91500000	          0.00000000	         -0.00000000	         -0.00000000	         -0.00000000	          0.00000000	         -0.00000000	          6.08897872	         21.49104948	          2.36669066	          0.09189355	          0.00000000	          0.04125673	          0.00000000	          0.00000000	          0.00000000	          0.00000000	         -2.48831317	          0.00000000	
          2.91600000	          0.00000000	         -0.00000000	         -0.00000000	         -0.00000000	          0.00000000	         -0.00000000	          5.46554093	         18.88757898	          2.21118517	          0.08758352	          0.00000000	          0.03933347	          0.00000000	          0.00000000	          0.00000000	          0.00000000	         -2.30075001	          0.00000000	
          2.91700000	         -0.00000000	         -0.00000000	         -0.00000000	         -0.00000000	          0.00000000	         -0.00000000	          4.87445741	         16.43409462	          2.06054584	          0.08330899	          0.00000000	          0.03742510	          0.00000000	          0.00000000	          0.00000000	          0.00000000	         -2.12044025	          0.00000000	
          2.91800000	         -0.00000000	         -0.00000000	         -0.00000000	         -0.00000000	          0.00000000	         -0.00000000	          4.31521083	         14.12711510	          1.91492817	          0.07908309	          0.00000000	          0.03553757	          0.00000000	          0.00000000	          0.00000000	          0.00000000	         -1.94744853	          0.00000000	
          2.91900000	         -0.00000000	         -0.00000000	         -0.00000000	         -0.00000000	          0.00000000	         -0.00000000	          3.78720755	         11.96290151	          1.77445546	          0.07491766	          0.00000000	          0.03367623	          0.00000000	          0.00000000	          0.00000000	          0.00000000	         -1.78180632	          0.00000000	
          2.92000000	         -0.00000000	         -0.00000000	         -0.00000000	         -0.00000000	          0.00000000	         -0.00000000	          3.28978633	          9.93749334	          1.63922107	          0.07082329	          0.00000000	          0.03184590	          0.00000000	          0.00000000	          0.00000000	          0.00000000	         -1.62351468	          0.00000000	
          2.92100000	         -0.00000000	         -0.00000000	         -0.00000000	         -0.00000000	          0.00000000	         -0.00000000	          2.82222660	          8.04674235	          1.50929063	          0.06680942	          0.00000000	          0.03005086	          0.00000000	          0.00000000	          0.00000000	          0.00000000	         -1.47254677	          0.00000000	
          2.92200000	         -0.00000000	         -0.00000000	         -0.00000000	         -0.00000000	          0.00000000	         -0.00000000	          2.38375621	          6.28634410	          1.38470416	          0.06288437	          0.00000000	          0.02829488	          0.00000000	          0.00000000	          0.00000000	          0.00000000	         -1.32885036	          0.00000000	
          2.92300000	         -0.00000000	         -0.00000000	         -0.00000000	         -0.00000000	          0.00000000	         -0.00000000	          1.97355873	          4.65186762	          1.26547808	          0.05905541	          0.00000000	          0.02658128	          0.00000000	          0.00000000	          0.00000000	          0.00000000	         -1.19235021	          0.00000000	
          2.92400000	         -0.00000000	         -0.00000000	         -0.00000000	         -0.00000000	          0.00000000	         -0.00000000	          1.59078034	          3.13878281	          1.15160715	          0.05532886	          0.00000000	          0.02491293	          0.00000000	          0.00000000	          0.00000000	          0.00000000	         -1.06295025	          0.00000000	
          2.92500000	         -0.00000000	         -0.00000000	         -0.00000000	         -0.00000000	          0.00000000	         -0.00000000	          1.23453616	          1.74248605	          1.04306634	          0.05171007	          0.00000000	          0.02329230	          0.00000000	          0.00000000	          0.00000000	          0.00000000	         -0.94053578	          0.00000000	
          2.92600000	         -0.00000000	         -0.00000000	         -0.00000000	         -0.00000000	          0.00000000	         -0.00000000	          0.90391633	          0.45832380	          0.93981262	          0.04820357	          0.00000000	          0.02172144	          0.00000000	          0.00000000	          0.00000000	          0.00000000	         -0.82497543	          0.00000000	
          2.92700000	         -0.00000000	         -0.00000000	         -0.00000000	         -0.00000000	          0.00000000	         -0.00000000	          0.59799148	         -0.71838553	          0.84178663	          0.04481306	          0.00000000	          0.02020206	          0.00000000	          0.00000000	          0.00000000	          0.00000000	         -0.71612311	          0.00000000	
